# xmcd
#
# Track frame offsets: 
#        150
#        14297
#        40271
#        59279
#        80929
#        96611
#        115303
#        135912
#        158008
#        174988
#        193290
#        224738
#        248671
#
# Disc length: 3537 seconds
#
# Revision: 0
# Processed by: cddbd v1.5.2PL0 Copyright (c) Steve Scherf et al.
# Submitted via: ExactAudioCopy v1.0b3
#
DISCID=b90dcf0d
DTITLE=Lalah Hathaway - Where It All Begins
DYEAR=2011
DGENRE=Blues
TTITLE0=Strong Woman
TTITLE1=Where It All Beings
TTITLE2=My Everything
TTITLE3=Small of My Back
TTITLE4=If You Want To
TTITLE5=Always Love You
TTITLE6=Lie to Me
TTITLE7=This Could Be Love
TTITLE8=Wrong Way
TTITLE9=You Were Meant for Me
TTITLE10=I'm Coming Back
TTITLE11=Dreamland
TTITLE12=My Heart
EXTD=
EXTT0=
EXTT1=
EXTT2=
EXTT3=
EXTT4=
EXTT5=
EXTT6=
EXTT7=
EXTT8=
EXTT9=
EXTT10=
EXTT11=
EXTT12=
PLAYORDER=
